<svg id="Capa_1" enable-background="new 0 0 512 512" height="512" viewBox="0 0 512 512" width="512" xmlns="http://www.w3.org/2000/svg"><g><g><g><path d="m165.085 98.415c0-50.211 40.704-90.915 90.915-90.915s90.915 40.704 90.915 90.915z" fill="#ffe07d"/></g><g><path d="m346.915 98.415c0-31.76-16.29-59.712-40.966-75.969 9.444 14.335 14.946 31.498 14.946 49.948 0 9.044-1.327 17.776-3.786 26.021z" fill="#ffd064"/></g><g><path d="m197.411 98.415c0-32.306 26.283-58.589 58.589-58.589s58.589 26.283 58.589 58.589z" fill="#eab14d"/></g></g><g><path d="m114.577 150.943v-42.427c0-5.579 4.523-10.102 10.102-10.102h262.642c5.579 0 10.102 4.523 10.102 10.102v42.427c0 5.579-4.523 10.102-10.102 10.102h-262.642c-5.579 0-10.102-4.523-10.102-10.102z" fill="#9dc6fb"/></g><g><path d="m387.321 98.415h-31.026c5.579 0 10.102 4.523 10.102 10.102v42.427c0 5.579-4.523 10.102-10.102 10.102h31.026c5.579 0 10.102-4.523 10.102-10.102v-42.427c0-5.58-4.523-10.102-10.102-10.102z" fill="#80b4fb"/></g><g><path d="m84.27 303.59v-52.56c0-16.52 10.06-31.38 25.4-37.52l25.11-10.04v-42.43h242.44v42.43l25.11 10.04c15.34 6.14 25.4 21 25.4 37.52v213.06c0 22.32-18.09 40.41-40.41 40.41h-262.64c-22.32 0-40.41-18.09-40.41-40.41v-125.3z" fill="#e7ecf6"/></g><g><path d="m402.328 213.515-25.108-10.043v-42.427h-30.305v48.952c0 8.261 5.03 15.69 12.7 18.758l12.408 4.963c15.341 6.136 25.4 20.994 25.4 37.516v192.859c0 22.316-18.091 40.406-40.406 40.406h30.305c22.316 0 40.406-18.091 40.406-40.406v-213.062c0-16.522-10.06-31.38-25.4-37.516z" fill="#d8e2f1"/></g><g><g><g><path d="m346.915 464.094h-161.626c-5.579 0-10.102 4.523-10.102 10.102v20.203c0 5.579 4.523 10.102 10.102 10.102h161.626c5.579 0 10.102-4.523 10.102-10.102v-20.203c-.001-5.58-4.523-10.102-10.102-10.102z" fill="#ffe07d"/></g><g><path d="m346.915 464.094h-29.547c5.579 0 10.102 4.523 10.102 10.102v20.203c0 5.579-4.523 10.102-10.102 10.102h29.547c5.579 0 10.102-4.523 10.102-10.102v-20.203c-.001-5.58-4.523-10.102-10.102-10.102z" fill="#ffd064"/></g></g><g><g><path d="m326.711 423.687h-161.626c-5.579 0-10.102 4.523-10.102 10.102v20.203c0 5.579 4.523 10.102 10.102 10.102h161.626c5.579 0 10.102-4.523 10.102-10.102v-20.203c0-5.579-4.523-10.102-10.102-10.102z" fill="#ffe07d"/></g><g><path d="m326.711 423.687h-29.547c5.579 0 10.102 4.523 10.102 10.102v20.203c0 5.579-4.523 10.102-10.102 10.102h29.547c5.579 0 10.102-4.523 10.102-10.102v-20.203c0-5.579-4.523-10.102-10.102-10.102z" fill="#ffd064"/></g></g><g><g><path d="m346.915 383.28h-161.626c-5.579 0-10.102 4.523-10.102 10.102v20.203c0 5.579 4.523 10.102 10.102 10.102h161.626c5.579 0 10.102-4.523 10.102-10.102v-20.203c-.001-5.579-4.523-10.102-10.102-10.102z" fill="#ffe07d"/></g><g><path d="m346.915 383.28h-29.547c5.579 0 10.102 4.523 10.102 10.102v20.203c0 5.579-4.523 10.102-10.102 10.102h29.547c5.579 0 10.102-4.523 10.102-10.102v-20.203c-.001-5.579-4.523-10.102-10.102-10.102z" fill="#ffd064"/></g></g><g><g><path d="m326.711 342.874h-161.626c-5.579 0-10.102 4.523-10.102 10.102v20.203c0 5.579 4.523 10.102 10.102 10.102h161.626c5.579 0 10.102-4.523 10.102-10.102v-20.203c0-5.579-4.523-10.102-10.102-10.102z" fill="#ffe07d"/></g><g><path d="m326.711 342.874h-29.547c5.579 0 10.102 4.523 10.102 10.102v20.203c0 5.579-4.523 10.102-10.102 10.102h29.547c5.579 0 10.102-4.523 10.102-10.102v-20.203c0-5.579-4.523-10.102-10.102-10.102z" fill="#ffd064"/></g></g></g><g><path d="m405.115 206.546-20.395-8.154v-29.852h2.6c9.705 0 17.6-7.896 17.6-17.6v-42.42c0-9.71-7.896-17.609-17.6-17.609h-33.189c-3.847-50.775-46.39-90.911-98.131-90.911s-94.284 40.136-98.131 90.91h-33.189c-9.705 0-17.6 7.899-17.6 17.609v42.421c0 9.704 7.896 17.6 17.6 17.6h2.6v29.852l-20.397 8.155c-18.293 7.322-30.113 24.783-30.113 44.483v52.56c0 4.143 3.358 7.5 7.5 7.5s7.5-3.357 7.5-7.5v-52.56c0-13.532 8.12-25.527 20.685-30.557l25.11-10.04c2.848-1.139 4.715-3.896 4.715-6.964v-34.93h144.12c4.142 0 7.5-3.357 7.5-7.5s-3.358-7.5-7.5-7.5h-161.72c-1.434 0-2.6-1.166-2.6-2.6v-42.419c0-1.438 1.167-2.609 2.6-2.609h262.64c1.434 0 2.6 1.171 2.6 2.609v42.421c0 1.434-1.167 2.6-2.6 2.6h-65.72c-4.142 0-7.5 3.357-7.5 7.5s3.358 7.5 7.5 7.5h48.12v34.93c0 3.067 1.868 5.825 4.715 6.964l25.107 10.039c12.567 5.03 20.687 17.025 20.687 30.558v52.56c0 4.143 3.358 7.5 7.5 7.5s7.5-3.357 7.5-7.5v-52.56c.001-19.702-11.819-37.163-30.114-44.486zm-149.115-191.546c43.464 0 79.251 33.42 83.06 75.91h-17.409c-3.74-32.92-31.748-58.585-65.651-58.585s-61.911 25.665-65.651 58.585h-17.409c3.809-42.49 39.596-75.91 83.06-75.91zm50.533 75.91h-101.066c3.641-24.625 24.912-43.585 50.533-43.585s46.892 18.96 50.533 43.585z"/><path d="m427.73 331.29c-4.142 0-7.5 3.357-7.5 7.5v125.3c0 18.146-14.763 32.91-32.91 32.91h-23.018c.127-.851.214-1.715.214-2.602v-20.203c0-9.705-7.896-17.602-17.602-17.602h-2.816c.127-.851.214-1.715.214-2.602v-20.203c0-.886-.087-1.751-.214-2.603h2.816c9.706 0 17.602-7.896 17.602-17.602v-20.203c0-9.705-7.896-17.602-17.602-17.602h-2.816c.127-.851.214-1.715.214-2.602v-20.203c0-9.705-7.896-17.602-17.602-17.602h-161.625c-9.706 0-17.602 7.896-17.602 17.602v20.203c0 9.705 7.896 17.602 17.602 17.602h2.816c-.127.851-.214 1.715-.214 2.602v20.203c0 .886.087 1.75.214 2.602h-2.816c-9.706 0-17.602 7.896-17.602 17.603v20.203c0 9.705 7.896 17.602 17.602 17.602h2.816c-.127.851-.214 1.715-.214 2.602v20.203c0 .886.087 1.75.214 2.602h-43.221c-18.147 0-32.91-14.764-32.91-32.91v-125.3c0-4.143-3.358-7.5-7.5-7.5s-7.5 3.357-7.5 7.5v125.3c0 26.418 21.492 47.91 47.91 47.91h262.64c26.418 0 47.91-21.492 47.91-47.91v-125.3c0-4.143-3.358-7.5-7.5-7.5zm-265.246 41.889v-20.203c0-1.435 1.167-2.602 2.602-2.602h161.626c1.435 0 2.602 1.167 2.602 2.602v20.203c0 1.435-1.167 2.602-2.602 2.602h-161.627c-1.434-.001-2.601-1.168-2.601-2.602zm20.203 40.406v-20.203c0-1.435 1.167-2.602 2.602-2.602h161.626c1.435 0 2.602 1.167 2.602 2.602v20.203c0 1.435-1.167 2.602-2.602 2.602h-161.626c-1.435 0-2.602-1.167-2.602-2.602zm-20.203 40.407v-20.203c0-1.436 1.167-2.603 2.602-2.603h161.626c1.435 0 2.602 1.167 2.602 2.603v20.203c0 1.435-1.167 2.602-2.602 2.602h-161.627c-1.434 0-2.601-1.167-2.601-2.602zm22.805 43.008c-1.435 0-2.602-1.167-2.602-2.602v-20.203c0-1.435 1.167-2.602 2.602-2.602h161.626c1.435 0 2.602 1.167 2.602 2.602v20.203c0 1.435-1.167 2.602-2.602 2.602z"/></g></g></svg>