<?xml version="1.0" encoding="iso-8859-1"?>
<!-- Generator: Adobe Illustrator 19.0.0, SVG Export Plug-In . SVG Version: 6.00 Build 0)  -->
<svg version="1.1" id="Capa_1" xmlns="http://www.w3.org/2000/svg" xmlns:xlink="http://www.w3.org/1999/xlink" x="0px" y="0px"
	 viewBox="0 0 512 512" style="enable-background:new 0 0 512 512;" xml:space="preserve">
<g>
	<rect x="8.533" y="221.867" style="fill:#28384C;" width="42.667" height="68.267"/>
	<rect x="460.8" y="221.867" style="fill:#28384C;" width="42.667" height="68.267"/>
	<rect x="153.6" y="221.867" style="fill:#28384C;" width="204.8" height="68.267"/>
</g>
<path style="fill:#366DB6;" d="M128,409.6L128,409.6c-18.85,0-34.133-15.283-34.133-34.133V136.533
	c0-18.85,15.283-34.133,34.133-34.133l0,0c18.85,0,34.133,15.283,34.133,34.133v238.933C162.133,394.317,146.85,409.6,128,409.6z"/>
<path style="fill:#1F436D;" d="M68.267,341.333L68.267,341.333c-14.14,0-25.6-11.46-25.6-25.6V196.267c0-14.14,11.46-25.6,25.6-25.6
	l0,0c14.14,0,25.6,11.46,25.6,25.6v119.467C93.867,329.873,82.406,341.333,68.267,341.333z"/>
<path style="fill:#366DB6;" d="M384,409.6L384,409.6c18.85,0,34.133-15.283,34.133-34.133V136.533
	c0-18.85-15.283-34.133-34.133-34.133l0,0c-18.85,0-34.133,15.283-34.133,34.133v238.933C349.867,394.317,365.15,409.6,384,409.6z"
	/>
<path style="fill:#1F436D;" d="M443.733,341.333L443.733,341.333c14.14,0,25.6-11.46,25.6-25.6V196.267
	c0-14.14-11.46-25.6-25.6-25.6l0,0c-14.14,0-25.6,11.46-25.6,25.6v119.467C418.133,329.873,429.594,341.333,443.733,341.333z"/>
<g>
	<path style="fill:#4D007E;" d="M128,418.133c-23.526,0-42.667-19.14-42.667-42.667V136.533c0-23.526,19.14-42.667,42.667-42.667
		s42.667,19.14,42.667,42.667v238.933C170.667,398.993,151.526,418.133,128,418.133z M128,110.933c-14.114,0-25.6,11.486-25.6,25.6
		v238.933c0,14.114,11.486,25.6,25.6,25.6s25.6-11.486,25.6-25.6V136.533C153.6,122.419,142.114,110.933,128,110.933z"/>
	<path style="fill:#4D007E;" d="M68.267,349.867c-18.825,0-34.133-15.309-34.133-34.133V196.267
		c0-18.825,15.309-34.133,34.133-34.133s34.133,15.309,34.133,34.133v119.467C102.4,334.558,87.091,349.867,68.267,349.867z
		 M68.267,179.2c-9.412,0-17.067,7.654-17.067,17.067v119.467c0,9.412,7.654,17.067,17.067,17.067s17.067-7.654,17.067-17.067
		V196.267C85.333,186.854,77.679,179.2,68.267,179.2z"/>
	<path style="fill:#4D007E;" d="M42.667,298.667H8.533c-4.71,0-8.533-3.823-8.533-8.533v-68.267c0-4.71,3.823-8.533,8.533-8.533
		h34.133c4.71,0,8.533,3.823,8.533,8.533v68.267C51.2,294.844,47.377,298.667,42.667,298.667z M17.067,281.6h17.067v-51.2H17.067
		V281.6z"/>
	<path style="fill:#4D007E;" d="M349.867,298.667H162.133c-4.71,0-8.533-3.823-8.533-8.533v-68.267c0-4.71,3.823-8.533,8.533-8.533
		h187.733c4.71,0,8.533,3.823,8.533,8.533v68.267C358.4,294.844,354.577,298.667,349.867,298.667z M170.667,281.6h170.667v-51.2
		H170.667V281.6z"/>
	<path style="fill:#4D007E;" d="M384,418.133c-23.526,0-42.667-19.14-42.667-42.667V136.533c0-23.526,19.14-42.667,42.667-42.667
		s42.667,19.14,42.667,42.667v238.933C426.667,398.993,407.526,418.133,384,418.133z M384,110.933c-14.114,0-25.6,11.486-25.6,25.6
		v238.933c0,14.114,11.486,25.6,25.6,25.6c14.114,0,25.6-11.486,25.6-25.6V136.533C409.6,122.419,398.114,110.933,384,110.933z"/>
	<path style="fill:#4D007E;" d="M443.733,349.867c-18.825,0-34.133-15.309-34.133-34.133V196.267
		c0-18.825,15.309-34.133,34.133-34.133c18.825,0,34.133,15.309,34.133,34.133v119.467
		C477.867,334.558,462.558,349.867,443.733,349.867z M443.733,179.2c-9.412,0-17.067,7.654-17.067,17.067v119.467
		c0,9.412,7.654,17.067,17.067,17.067c9.412,0,17.067-7.654,17.067-17.067V196.267C460.8,186.854,453.146,179.2,443.733,179.2z"/>
	<path style="fill:#4D007E;" d="M503.467,298.667h-34.133c-4.71,0-8.533-3.823-8.533-8.533v-68.267c0-4.71,3.823-8.533,8.533-8.533
		h34.133c4.71,0,8.533,3.823,8.533,8.533v68.267C512,294.844,508.177,298.667,503.467,298.667z M477.867,281.6h17.067v-51.2h-17.067
		V281.6z"/>
	<path style="fill:#4D007E;" d="M290.133,264.533h-128c-4.71,0-8.533-3.823-8.533-8.533c0-4.71,3.823-8.533,8.533-8.533h128
		c4.71,0,8.533,3.823,8.533,8.533C298.667,260.71,294.844,264.533,290.133,264.533z"/>
	<path style="fill:#4D007E;" d="M349.867,264.533h-25.6c-4.71,0-8.533-3.823-8.533-8.533c0-4.71,3.823-8.533,8.533-8.533h25.6
		c4.71,0,8.533,3.823,8.533,8.533C358.4,260.71,354.577,264.533,349.867,264.533z"/>
	<path style="fill:#4D007E;" d="M128,264.533c-4.71,0-8.533-3.823-8.533-8.533v-68.267c0-4.71,3.823-8.533,8.533-8.533
		c4.71,0,8.533,3.823,8.533,8.533V256C136.533,260.71,132.71,264.533,128,264.533z"/>
	<path style="fill:#4D007E;" d="M128,162.133c-4.71,0-8.533-3.823-8.533-8.533v-17.067c0-4.71,3.823-8.533,8.533-8.533
		c4.71,0,8.533,3.823,8.533,8.533V153.6C136.533,158.31,132.71,162.133,128,162.133z"/>
	<path style="fill:#4D007E;" d="M384,332.8c-4.71,0-8.533-3.823-8.533-8.533V256c0-4.71,3.823-8.533,8.533-8.533
		s8.533,3.823,8.533,8.533v68.267C392.533,328.977,388.71,332.8,384,332.8z"/>
	<path style="fill:#4D007E;" d="M384,384c-4.71,0-8.533-3.823-8.533-8.533V358.4c0-4.71,3.823-8.533,8.533-8.533
		s8.533,3.823,8.533,8.533v17.067C392.533,380.177,388.71,384,384,384z"/>
	<path style="fill:#4D007E;" d="M503.467,418.133h-34.133c-4.71,0-8.533-3.823-8.533-8.533c0-4.71,3.823-8.533,8.533-8.533h34.133
		c4.71,0,8.533,3.823,8.533,8.533C512,414.31,508.177,418.133,503.467,418.133z"/>
	<path style="fill:#4D007E;" d="M204.8,418.133H8.533C3.823,418.133,0,414.31,0,409.6c0-4.71,3.823-8.533,8.533-8.533H204.8
		c4.71,0,8.533,3.823,8.533,8.533C213.333,414.31,209.51,418.133,204.8,418.133z"/>
	<path style="fill:#4D007E;" d="M273.067,418.133h-34.133c-4.71,0-8.533-3.823-8.533-8.533c0-4.71,3.823-8.533,8.533-8.533h34.133
		c4.71,0,8.533,3.823,8.533,8.533C281.6,414.31,277.777,418.133,273.067,418.133z"/>
	<path style="fill:#4D007E;" d="M435.2,418.133h-128c-4.71,0-8.533-3.823-8.533-8.533c0-4.71,3.823-8.533,8.533-8.533h128
		c4.71,0,8.533,3.823,8.533,8.533C443.733,414.31,439.91,418.133,435.2,418.133z"/>
</g>
<g>
</g>
<g>
</g>
<g>
</g>
<g>
</g>
<g>
</g>
<g>
</g>
<g>
</g>
<g>
</g>
<g>
</g>
<g>
</g>
<g>
</g>
<g>
</g>
<g>
</g>
<g>
</g>
<g>
</g>
</svg>
